<svg width="288" height="87" viewBox="0 0 288 87" fill="none" xmlns="http://www.w3.org/2000/svg">
<path d="M25.87 86.95C14.7767 86.95 6.28333 83.6567 0.39 77.07V66.67H12.87V72.91C15.73 75.8567 19.76 77.33 24.96 77.33C29.4667 77.33 32.76 76.2033 34.84 73.95C36.92 71.61 37.96 68.1 37.96 63.42V15.19C37.96 13.5433 37.57 12.3733 36.79 11.68C36.01 10.9 34.7967 10.51 33.15 10.51H29.25V0.889998H60.19V10.51H56.42C54.7733 10.51 53.56 10.9 52.78 11.68C52 12.3733 51.61 13.5433 51.61 15.19V61.47C51.61 69.53 49.4 75.8133 44.98 80.32C40.56 84.74 34.19 86.95 25.87 86.95ZM81.7822 75.51H85.5522C87.2855 75.51 88.4989 75.12 89.1922 74.34C89.9722 73.56 90.3622 72.3033 90.3622 70.57V15.32C90.3622 13.5867 89.9722 12.33 89.1922 11.55C88.4989 10.77 87.2855 10.38 85.5522 10.38H81.7822V0.889998H105.052L127.932 53.8L150.682 0.889998H173.952V10.38H170.052C168.406 10.38 167.192 10.77 166.412 11.55C165.719 12.33 165.372 13.5867 165.372 15.32V70.57C165.372 72.3033 165.719 73.56 166.412 74.34C167.192 75.12 168.406 75.51 170.052 75.51H173.952V85H143.142V75.51H147.042C148.689 75.51 149.859 75.1633 150.552 74.47C151.332 73.69 151.722 72.4333 151.722 70.7V23.64L133.132 66.93H122.602L103.882 23.64V70.7C103.882 72.3467 104.272 73.56 105.052 74.34C105.832 75.12 107.046 75.51 108.692 75.51H112.592V85H81.7822V75.51ZM195.583 75.51H199.353C201.086 75.51 202.3 75.12 202.993 74.34C203.773 73.56 204.163 72.3033 204.163 70.57V15.32C204.163 13.5867 203.773 12.33 202.993 11.55C202.3 10.77 201.086 10.38 199.353 10.38H195.583V0.889998H218.853L241.733 53.8L264.483 0.889998H287.753V10.38H283.853C282.206 10.38 280.993 10.77 280.213 11.55C279.52 12.33 279.173 13.5867 279.173 15.32V70.57C279.173 72.3033 279.52 73.56 280.213 74.34C280.993 75.12 282.206 75.51 283.853 75.51H287.753V85H256.943V75.51H260.843C262.49 75.51 263.66 75.1633 264.353 74.47C265.133 73.69 265.523 72.4333 265.523 70.7V23.64L246.933 66.93H236.403L217.683 23.64V70.7C217.683 72.3467 218.073 73.56 218.853 74.34C219.633 75.12 220.846 75.51 222.493 75.51H226.393V85H195.583V75.51Z" fill="#FFFBFB"/>
<path d="M0.39 77.07H-0.61V77.4521L-0.355241 77.7368L0.39 77.07ZM0.39 66.67V65.67H-0.61V66.67H0.39ZM12.87 66.67H13.87V65.67H12.87V66.67ZM12.87 72.91H11.87V73.3155L12.1524 73.6065L12.87 72.91ZM34.84 73.95L35.5748 74.6283L35.5812 74.6214L35.5874 74.6144L34.84 73.95ZM36.79 11.68L36.0829 12.3871L36.1037 12.4079L36.1256 12.4274L36.79 11.68ZM29.25 10.51H28.25V11.51H29.25V10.51ZM29.25 0.889998V-0.110002H28.25V0.889998H29.25ZM60.19 0.889998H61.19V-0.110002H60.19V0.889998ZM60.19 10.51V11.51H61.19V10.51H60.19ZM52.78 11.68L53.4444 12.4274L53.4663 12.4079L53.4871 12.3871L52.78 11.68ZM44.98 80.32L45.6871 81.0271L45.6939 81.0202L44.98 80.32ZM25.87 85.95C14.9832 85.95 6.79245 82.726 1.13524 76.4032L-0.355241 77.7368C5.77422 84.5874 14.5701 87.95 25.87 87.95V85.95ZM1.39 77.07V66.67H-0.61V77.07H1.39ZM0.39 67.67H12.87V65.67H0.39V67.67ZM11.87 66.67V72.91H13.87V66.67H11.87ZM12.1524 73.6065C15.2479 76.7957 19.5657 78.33 24.96 78.33V76.33C19.9543 76.33 16.2121 74.9176 13.5876 72.2135L12.1524 73.6065ZM24.96 78.33C29.6135 78.33 33.2314 77.167 35.5748 74.6283L34.1052 73.2717C32.2886 75.2397 29.3198 76.33 24.96 76.33V78.33ZM35.5874 74.6144C37.8943 72.0191 38.96 68.227 38.96 63.42H36.96C36.96 67.973 35.9457 71.2009 34.0926 73.2856L35.5874 74.6144ZM38.96 63.42V15.19H36.96V63.42H38.96ZM38.96 15.19C38.96 13.4205 38.545 11.9021 37.4544 10.9326L36.1256 12.4274C36.595 12.8446 36.96 13.6662 36.96 15.19H38.96ZM37.4971 10.9729C36.4545 9.93029 34.9325 9.51 33.15 9.51V11.51C34.6609 11.51 35.5655 11.8697 36.0829 12.3871L37.4971 10.9729ZM33.15 9.51H29.25V11.51H33.15V9.51ZM30.25 10.51V0.889998H28.25V10.51H30.25ZM29.25 1.89H60.19V-0.110002H29.25V1.89ZM59.19 0.889998V10.51H61.19V0.889998H59.19ZM60.19 9.51H56.42V11.51H60.19V9.51ZM56.42 9.51C54.6375 9.51 53.1155 9.93029 52.0729 10.9729L53.4871 12.3871C54.0045 11.8697 54.9092 11.51 56.42 11.51V9.51ZM52.1156 10.9326C51.025 11.9021 50.61 13.4205 50.61 15.19H52.61C52.61 13.6662 52.975 12.8446 53.4444 12.4274L52.1156 10.9326ZM50.61 15.19V61.47H52.61V15.19H50.61ZM50.61 61.47C50.61 69.3439 48.4557 75.348 44.2661 79.6198L45.6939 81.0202C50.3443 76.2787 52.61 69.7161 52.61 61.47H50.61ZM44.2729 79.6129C40.0961 83.7897 34.0155 85.95 25.87 85.95V87.95C34.3645 87.95 41.0239 85.6903 45.6871 81.0271L44.2729 79.6129ZM81.7822 75.51V74.51H80.7822V75.51H81.7822ZM89.1922 74.34L88.4851 73.6329L88.4643 73.6537L88.4448 73.6756L89.1922 74.34ZM89.1922 11.55L88.4448 12.2144L88.4643 12.2363L88.4851 12.2571L89.1922 11.55ZM81.7822 10.38H80.7822V11.38H81.7822V10.38ZM81.7822 0.889998V-0.110002H80.7822V0.889998H81.7822ZM105.052 0.889998L105.97 0.493087L105.709 -0.110002H105.052V0.889998ZM127.932 53.8L127.014 54.1969L127.935 56.3255L128.851 54.195L127.932 53.8ZM150.682 0.889998V-0.110002H150.024L149.764 0.494989L150.682 0.889998ZM173.952 0.889998H174.952V-0.110002H173.952V0.889998ZM173.952 10.38V11.38H174.952V10.38H173.952ZM166.412 11.55L165.705 10.8429L165.684 10.8637L165.665 10.8856L166.412 11.55ZM166.412 74.34L165.665 75.0044L165.684 75.0263L165.705 75.0471L166.412 74.34ZM173.952 75.51H174.952V74.51H173.952V75.51ZM173.952 85V86H174.952V85H173.952ZM143.142 85H142.142V86H143.142V85ZM143.142 75.51V74.51H142.142V75.51H143.142ZM150.552 74.47L151.259 75.1771L151.259 75.1771L150.552 74.47ZM151.722 23.64H152.722L150.803 23.2454L151.722 23.64ZM133.132 66.93V67.93H133.791L134.051 67.3246L133.132 66.93ZM122.602 66.93L121.684 67.3269L121.945 67.93H122.602V66.93ZM103.882 23.64L104.8 23.2431L102.882 23.64H103.882ZM105.052 74.34L104.345 75.0471L104.345 75.0471L105.052 74.34ZM112.592 75.51H113.592V74.51H112.592V75.51ZM112.592 85V86H113.592V85H112.592ZM81.7822 85H80.7822V86H81.7822V85ZM81.7822 76.51H85.5522V74.51H81.7822V76.51ZM85.5522 76.51C87.3891 76.51 88.9622 76.104 89.9396 75.0044L88.4448 73.6756C88.0355 74.136 87.182 74.51 85.5522 74.51V76.51ZM89.8993 75.0471C90.95 73.9964 91.3622 72.4216 91.3622 70.57H89.3622C89.3622 72.185 88.9944 73.1236 88.4851 73.6329L89.8993 75.0471ZM91.3622 70.57V15.32H89.3622V70.57H91.3622ZM91.3622 15.32C91.3622 13.4684 90.95 11.8936 89.8993 10.8429L88.4851 12.2571C88.9944 12.7664 89.3622 13.7049 89.3622 15.32H91.3622ZM89.9396 10.8856C88.9622 9.78605 87.3891 9.38 85.5522 9.38V11.38C87.182 11.38 88.0355 11.754 88.4448 12.2144L89.9396 10.8856ZM85.5522 9.38H81.7822V11.38H85.5522V9.38ZM82.7822 10.38V0.889998H80.7822V10.38H82.7822ZM81.7822 1.89H105.052V-0.110002H81.7822V1.89ZM104.134 1.28691L127.014 54.1969L128.85 53.4031L105.97 0.493087L104.134 1.28691ZM128.851 54.195L151.601 1.28501L149.764 0.494989L127.014 53.405L128.851 54.195ZM150.682 1.89H173.952V-0.110002H150.682V1.89ZM172.952 0.889998V10.38H174.952V0.889998H172.952ZM173.952 9.38H170.052V11.38H173.952V9.38ZM170.052 9.38C168.27 9.38 166.748 9.80029 165.705 10.8429L167.119 12.2571C167.637 11.7397 168.541 11.38 170.052 11.38V9.38ZM165.665 10.8856C164.731 11.9365 164.372 13.4925 164.372 15.32H166.372C166.372 13.6808 166.707 12.7235 167.16 12.2144L165.665 10.8856ZM164.372 15.32V70.57H166.372V15.32H164.372ZM164.372 70.57C164.372 72.3975 164.731 73.9535 165.665 75.0044L167.16 73.6756C166.707 73.1665 166.372 72.2091 166.372 70.57H164.372ZM165.705 75.0471C166.748 76.0897 168.27 76.51 170.052 76.51V74.51C168.541 74.51 167.637 74.1503 167.119 73.6329L165.705 75.0471ZM170.052 76.51H173.952V74.51H170.052V76.51ZM172.952 75.51V85H174.952V75.51H172.952ZM173.952 84H143.142V86H173.952V84ZM144.142 85V75.51H142.142V85H144.142ZM143.142 76.51H147.042V74.51H143.142V76.51ZM147.042 76.51C148.784 76.51 150.285 76.1511 151.259 75.1771L149.845 73.7629C149.432 74.1756 148.593 74.51 147.042 74.51V76.51ZM151.259 75.1771C152.31 74.1264 152.722 72.5516 152.722 70.7H150.722C150.722 72.315 150.354 73.2536 149.845 73.7629L151.259 75.1771ZM152.722 70.7V23.64H150.722V70.7H152.722ZM150.803 23.2454L132.213 66.5354L134.051 67.3246L152.641 24.0346L150.803 23.2454ZM133.132 65.93H122.602V67.93H133.132V65.93ZM123.52 66.5331L104.8 23.2431L102.964 24.0369L121.684 67.3269L123.52 66.5331ZM102.882 23.64V70.7H104.882V23.64H102.882ZM102.882 70.7C102.882 72.4825 103.302 74.0045 104.345 75.0471L105.759 73.6329C105.242 73.1155 104.882 72.2108 104.882 70.7H102.882ZM104.345 75.0471C105.388 76.0897 106.91 76.51 108.692 76.51V74.51C107.181 74.51 106.277 74.1503 105.759 73.6329L104.345 75.0471ZM108.692 76.51H112.592V74.51H108.692V76.51ZM111.592 75.51V85H113.592V75.51H111.592ZM112.592 84H81.7822V86H112.592V84ZM82.7822 85V75.51H80.7822V85H82.7822ZM195.583 75.51V74.51H194.583V75.51H195.583ZM202.993 74.34L202.286 73.6329L202.265 73.6537L202.246 73.6756L202.993 74.34ZM202.993 11.55L202.246 12.2144L202.265 12.2363L202.286 12.2571L202.993 11.55ZM195.583 10.38H194.583V11.38H195.583V10.38ZM195.583 0.889998V-0.110002H194.583V0.889998H195.583ZM218.853 0.889998L219.771 0.493087L219.51 -0.110002H218.853V0.889998ZM241.733 53.8L240.815 54.1969L241.736 56.3255L242.652 54.195L241.733 53.8ZM264.483 0.889998V-0.110002H263.824L263.564 0.494989L264.483 0.889998ZM287.753 0.889998H288.753V-0.110002H287.753V0.889998ZM287.753 10.38V11.38H288.753V10.38H287.753ZM280.213 11.55L279.506 10.8429L279.485 10.8637L279.466 10.8856L280.213 11.55ZM280.213 74.34L279.466 75.0044L279.485 75.0263L279.506 75.0471L280.213 74.34ZM287.753 75.51H288.753V74.51H287.753V75.51ZM287.753 85V86H288.753V85H287.753ZM256.943 85H255.943V86H256.943V85ZM256.943 75.51V74.51H255.943V75.51H256.943ZM264.353 74.47L265.06 75.1771L265.06 75.1771L264.353 74.47ZM265.523 23.64H266.523L264.604 23.2454L265.523 23.64ZM246.933 66.93V67.93H247.592L247.852 67.3246L246.933 66.93ZM236.403 66.93L235.485 67.3269L235.746 67.93H236.403V66.93ZM217.683 23.64L218.601 23.2431L216.683 23.64H217.683ZM218.853 74.34L218.146 75.0471L218.146 75.0471L218.853 74.34ZM226.393 75.51H227.393V74.51H226.393V75.51ZM226.393 85V86H227.393V85H226.393ZM195.583 85H194.583V86H195.583V85ZM195.583 76.51H199.353V74.51H195.583V76.51ZM199.353 76.51C201.19 76.51 202.763 76.104 203.74 75.0044L202.246 73.6756C201.836 74.136 200.983 74.51 199.353 74.51V76.51ZM203.7 75.0471C204.751 73.9964 205.163 72.4216 205.163 70.57H203.163C203.163 72.185 202.795 73.1236 202.286 73.6329L203.7 75.0471ZM205.163 70.57V15.32H203.163V70.57H205.163ZM205.163 15.32C205.163 13.4684 204.751 11.8936 203.7 10.8429L202.286 12.2571C202.795 12.7664 203.163 13.7049 203.163 15.32H205.163ZM203.74 10.8856C202.763 9.78605 201.19 9.38 199.353 9.38V11.38C200.983 11.38 201.836 11.754 202.246 12.2144L203.74 10.8856ZM199.353 9.38H195.583V11.38H199.353V9.38ZM196.583 10.38V0.889998H194.583V10.38H196.583ZM195.583 1.89H218.853V-0.110002H195.583V1.89ZM217.935 1.28691L240.815 54.1969L242.651 53.4031L219.771 0.493087L217.935 1.28691ZM242.652 54.195L265.402 1.28501L263.564 0.494989L240.814 53.405L242.652 54.195ZM264.483 1.89H287.753V-0.110002H264.483V1.89ZM286.753 0.889998V10.38H288.753V0.889998H286.753ZM287.753 9.38H283.853V11.38H287.753V9.38ZM283.853 9.38C282.07 9.38 280.548 9.80029 279.506 10.8429L280.92 12.2571C281.437 11.7397 282.342 11.38 283.853 11.38V9.38ZM279.466 10.8856C278.531 11.9365 278.173 13.4925 278.173 15.32H280.173C280.173 13.6808 280.508 12.7235 280.96 12.2144L279.466 10.8856ZM278.173 15.32V70.57H280.173V15.32H278.173ZM278.173 70.57C278.173 72.3975 278.531 73.9535 279.466 75.0044L280.96 73.6756C280.508 73.1665 280.173 72.2091 280.173 70.57H278.173ZM279.506 75.0471C280.548 76.0897 282.07 76.51 283.853 76.51V74.51C282.342 74.51 281.437 74.1503 280.92 73.6329L279.506 75.0471ZM283.853 76.51H287.753V74.51H283.853V76.51ZM286.753 75.51V85H288.753V75.51H286.753ZM287.753 84H256.943V86H287.753V84ZM257.943 85V75.51H255.943V85H257.943ZM256.943 76.51H260.843V74.51H256.943V76.51ZM260.843 76.51C262.585 76.51 264.086 76.1511 265.06 75.1771L263.646 73.7629C263.233 74.1756 262.394 74.51 260.843 74.51V76.51ZM265.06 75.1771C266.111 74.1264 266.523 72.5516 266.523 70.7H264.523C264.523 72.315 264.155 73.2536 263.646 73.7629L265.06 75.1771ZM266.523 70.7V23.64H264.523V70.7H266.523ZM264.604 23.2454L246.014 66.5354L247.852 67.3246L266.442 24.0346L264.604 23.2454ZM246.933 65.93H236.403V67.93H246.933V65.93ZM237.321 66.5331L218.601 23.2431L216.765 24.0369L235.485 67.3269L237.321 66.5331ZM216.683 23.64V70.7H218.683V23.64H216.683ZM216.683 70.7C216.683 72.4825 217.103 74.0045 218.146 75.0471L219.56 73.6329C219.043 73.1155 218.683 72.2108 218.683 70.7H216.683ZM218.146 75.0471C219.188 76.0897 220.71 76.51 222.493 76.51V74.51C220.982 74.51 220.077 74.1503 219.56 73.6329L218.146 75.0471ZM222.493 76.51H226.393V74.51H222.493V76.51ZM225.393 75.51V85H227.393V75.51H225.393ZM226.393 84H195.583V86H226.393V84ZM196.583 85V75.51H194.583V85H196.583Z" fill="#FDFAFA"/>
</svg>
